<svg id="dislike" xmlns="http://www.w3.org/2000/svg" viewBox="0 0 77.87 72.5">
  <defs>
    <style>
      .cls-1 {
        fill: #b4383c;
      }
    </style>
  </defs>
  <path id="Path_1" data-name="Path 1" class="cls-1" d="M156.894,120.5a8.774,8.774,0,0,1-2.565-.383,7.94,7.94,0,0,1-5.809-7.762,17.394,17.394,0,0,0-1.924-8.6,15.363,15.363,0,0,0-7.936-6.7,2.849,2.849,0,0,1-1.563-3.766,2.969,2.969,0,0,1,3.856-1.526c8.885,3.681,13.531,10.816,13.435,20.638a2.354,2.354,0,0,0,1.684,2.228,2.435,2.435,0,0,0,2.686-.891c5.546-7.971.679-16.746.63-16.834a2.808,2.808,0,0,1,.038-2.844,2.95,2.95,0,0,1,2.529-1.411h27.719a2.716,2.716,0,0,0,0-5.433h-4a2.867,2.867,0,1,1,0-5.733,2.813,2.813,0,0,0,1.967-.795,2.681,2.681,0,0,0,.814-1.921,2.753,2.753,0,0,0-2.781-2.715h-4a2.867,2.867,0,1,1,0-5.733,2.716,2.716,0,1,0,0-5.431h-4a2.867,2.867,0,1,1,0-5.733,2.716,2.716,0,1,0,0-5.431H160.715a22.329,22.329,0,0,0-7.646,1.338l-13.21,4.791A2.953,2.953,0,0,1,136.3,58.1a2.841,2.841,0,0,1,1.51-3.6l13.21-4.791A28.287,28.287,0,0,1,160.715,48h16.958a8.711,8.711,0,0,1,7.295,3.924,8.284,8.284,0,0,1,.533,8.116,8.371,8.371,0,0,1,4,11.166,8.371,8.371,0,0,1,4,11.164,8.387,8.387,0,0,1,4.59,9.5,8.612,8.612,0,0,1-8.424,6.526H166.255a21.179,21.179,0,0,1-2.638,18.578A8.117,8.117,0,0,1,156.894,120.5Z" transform="translate(-120.451 -48)"/>
  <path id="Path_2" data-name="Path 2" class="cls-1" d="M73.406,115.24H57a2.866,2.866,0,0,1-2.866-2.866v-39.3A2.866,2.866,0,0,1,57,70.21H73.406a2.866,2.866,0,0,1,2.866,2.866v39.3a2.866,2.866,0,0,1-2.866,2.866Zm-13.537-5.733H70.539V75.943H59.863Z" transform="translate(-54.13 -65.966)"/>
</svg>
