<svg id="Icon-Like" xmlns="http://www.w3.org/2000/svg" viewBox="0 0 77.867 73">
  <defs>
    <style>
      .cls-1 {
        fill: #136318;
      }
    </style>
  </defs>
  <path id="Fill-4_2_" class="cls-1" d="M-.533-481.351c0-5.191-4.056-7.949-9.733-7.949H-26.651a50.127,50.127,0,0,0,1.784-12.167c0-14.113-3.893-17.033-7.3-17.033a9.839,9.839,0,0,0-6.164,1.622,2.344,2.344,0,0,0-1.136,1.622l-2.433,13.14c-2.6,6.975-9.247,12.978-14.6,17.033v34.716c1.784,0,4.056.973,6.164,2.109,2.6,1.3,5.353,2.6,8.436,2.6h23.2c4.867,0,8.436-3.893,8.436-7.3a6.082,6.082,0,0,0-.162-1.784A7.211,7.211,0,0,0-5.4-461.4a8.458,8.458,0,0,0-.811-3.731c1.784-1.3,3.731-3.407,3.731-6A6.77,6.77,0,0,0-4.1-475.187c2.109-1.622,3.569-3.893,3.569-6.164Zm-5.029,0c0,3.082-3.244,3.407-3.731,4.867-.487,1.622,1.947,2.271,1.947,5.191,0,3.082-3.731,3.082-4.218,4.542-.649,1.784,1.136,2.433,1.136,5.353v.487c-.487,2.433-4.218,2.6-4.867,3.569-.649,1.136.162,1.785.162,4.38,0,1.46-1.622,2.433-3.569,2.433H-41.9c-1.784,0-4.056-.973-6.164-2.109a27.4,27.4,0,0,0-6-2.433v-25.793c6-4.542,13.789-11.518,16.871-19.953,0-.162,0-.325.162-.325l2.271-12.167A6.756,6.756,0,0,1-32-513.633c.487,0,2.433,2.92,2.433,12.167A44.863,44.863,0,0,1-31.518-489.3h-.649a2.5,2.5,0,0,0-2.433,2.433,2.5,2.5,0,0,0,2.433,2.433h21.9c2.433,0,4.7,1.136,4.7,3.082Z" transform="translate(78.4 518.5)"/>
  <path id="Fill-6_2_" class="cls-1" d="M-50.533-445.5h-14.6A4.78,4.78,0,0,1-70-450.367v-34.067a4.78,4.78,0,0,1,4.867-4.867h14.6a4.78,4.78,0,0,1,4.867,4.867v34.067a4.78,4.78,0,0,1-4.867,4.867Zm-14.6-38.933v34.067h14.6v-34.067ZM-70-518.5" transform="translate(70 518.5)"/>
</svg>
